<?xml version="1.0" standalone="no"?>
<!DOCTYPE svg PUBLIC "-//W3C//DTD SVG 20010904//EN"
 "http://www.w3.org/TR/2001/REC-SVG-20010904/DTD/svg10.dtd">
<svg version="1.0" xmlns="http://www.w3.org/2000/svg"
 width="900.000000pt" height="675.000000pt" viewBox="0 0 900.000000 675.000000"
 preserveAspectRatio="xMidYMid meet">
<metadata>
Created by potrace 1.10, written by Peter Selinger 2001-2011
</metadata>
<g transform="translate(0.000000,675.000000) scale(0.100000,-0.100000)"
fill="#044d33" stroke="none">
<path d="M3945 6570 c-11 -5 -59 -9 -106 -9 -47 -1 -107 -7 -133 -15 -27 -8
-53 -13 -59 -10 -20 7 -152 -22 -188 -42 -19 -10 -50 -31 -69 -45 -19 -15 -45
-30 -58 -34 -19 -5 -135 -69 -189 -103 -6 -4 -50 -37 -97 -74 -48 -38 -91 -68
-96 -68 -5 0 -14 -8 -19 -17 -5 -10 -48 -56 -95 -103 -65 -64 -94 -101 -117
-150 -16 -36 -34 -72 -39 -80 -6 -8 -14 -24 -19 -35 -5 -11 -29 -43 -53 -70
-50 -56 -64 -95 -47 -127 6 -11 13 -71 15 -132 4 -141 15 -218 47 -331 14 -49
35 -139 47 -200 12 -60 26 -130 32 -155 5 -25 12 -124 15 -220 2 -96 9 -189
14 -206 5 -17 14 -65 19 -105 5 -41 16 -108 24 -149 8 -41 18 -92 21 -112 10
-63 101 -148 159 -148 32 0 34 -4 51 -107 16 -92 38 -184 60 -243 37 -102 39
-116 15 -142 -32 -34 -49 -70 -55 -119 -12 -85 -13 -88 -43 -87 -38 1 -149
-57 -230 -121 -24 -18 -67 -49 -95 -68 -29 -20 -56 -41 -62 -47 -21 -25 -109
-77 -139 -83 -47 -9 -88 -45 -114 -99 -13 -27 -28 -57 -33 -67 -5 -9 -12 -37
-16 -62 -5 -43 -6 -44 -55 -54 -64 -14 -129 -44 -203 -94 -69 -47 -84 -48
-288 -21 -107 14 -121 14 -164 0 -26 -9 -57 -16 -70 -16 -13 0 -40 -9 -60 -20
-21 -11 -43 -20 -50 -20 -13 0 -161 -75 -205 -104 -16 -10 -34 -16 -42 -13
-20 8 -153 -62 -228 -121 -35 -27 -83 -59 -108 -71 -46 -23 -54 -29 -151 -123
-30 -29 -93 -75 -138 -103 -46 -27 -112 -71 -147 -97 -35 -27 -66 -48 -68 -48
-3 0 -39 -20 -79 -45 -41 -25 -82 -45 -91 -45 -21 0 -109 -44 -130 -65 -14
-15 -16 -91 -16 -771 l0 -754 3490 0 c2785 0 3490 3 3490 13 0 11 -27 110 -56
207 -18 60 -37 112 -49 130 -5 8 -31 58 -57 110 -49 98 -58 143 -37 196 15 40
39 218 39 292 0 70 -26 246 -41 273 -5 10 -9 25 -9 35 0 17 -67 164 -79 174
-3 3 -18 23 -33 45 -15 22 -42 56 -59 75 -17 19 -49 60 -71 90 -23 30 -81 96
-130 146 -49 50 -96 101 -104 112 -8 12 -51 47 -97 79 -45 32 -121 94 -168
138 -82 76 -142 113 -259 160 -25 10 -65 28 -90 39 -25 11 -86 34 -137 51
-106 37 -123 48 -123 84 0 14 -9 40 -20 56 -11 17 -20 42 -20 57 0 27 -47 169
-80 244 -11 23 -41 60 -67 83 -43 37 -174 109 -228 125 -12 3 -37 28 -58 56
-20 27 -49 57 -63 67 -27 17 -27 17 -61 -22 -18 -22 -35 -49 -37 -60 -9 -44
-26 -248 -31 -380 -8 -189 -27 -248 -104 -322 l-56 -53 -18 21 c-16 20 -16 23
-2 39 21 24 11 42 -36 64 -22 10 -43 26 -47 35 -3 9 -14 28 -25 42 -16 22 -17
30 -7 49 9 17 9 28 0 51 -11 27 -9 33 24 82 20 29 56 73 81 97 57 57 58 72 6
64 -35 -6 -43 -3 -65 21 -14 15 -26 32 -26 36 0 5 -7 9 -16 9 -9 0 -33 14 -54
30 -21 17 -52 32 -69 34 -37 4 -33 0 -59 52 l-21 42 24 6 c39 10 108 -5 124
-27 11 -15 15 -16 22 -6 5 8 9 24 9 35 0 26 34 38 50 19 9 -11 20 -8 55 17 40
28 47 30 72 19 23 -11 29 -10 40 5 7 10 13 26 13 37 0 22 18 59 34 69 16 10
10 136 -8 178 -8 20 -35 54 -61 78 -46 42 -81 52 -102 31 -17 -17 -60 -2 -158
55 l-90 53 -3 46 c-3 44 -2 47 21 47 14 0 30 7 37 15 7 8 21 15 31 15 10 0 21
5 24 11 4 6 19 7 36 4 22 -5 29 -3 29 9 0 20 24 21 40 1 7 -8 17 -15 22 -15 5
0 22 -9 36 -21 17 -13 34 -18 49 -14 16 4 25 0 29 -10 9 -22 32 -18 45 8 6 12
20 29 31 38 18 14 19 19 7 57 -7 25 -18 42 -27 42 -11 0 -13 8 -9 30 5 24 1
36 -23 60 -17 17 -30 35 -30 39 0 5 -9 11 -20 14 -11 3 -20 13 -20 24 0 18
-72 57 -84 45 -3 -3 -6 -42 -6 -87 0 -60 -4 -86 -14 -94 -12 -10 -18 -8 -30
12 -11 16 -33 28 -72 37 -40 10 -63 22 -84 47 -38 42 -73 111 -66 128 2 7 -2
49 -9 92 -15 88 -19 173 -12 308 2 50 5 122 6 160 2 83 11 106 36 85 10 -8 21
-24 26 -37 5 -13 17 -23 28 -23 22 0 36 -31 50 -112 6 -32 17 -71 26 -88 27
-52 116 -139 169 -165 28 -14 63 -33 77 -42 22 -14 30 -14 69 -2 39 12 45 19
53 51 7 30 16 39 47 52 28 11 40 23 45 43 7 32 64 73 101 73 15 0 27 7 30 18
3 9 10 25 15 34 15 29 10 60 -16 94 -14 18 -31 50 -38 71 -11 32 -10 42 2 64
20 36 5 95 -30 122 -22 16 -47 20 -152 22 -93 3 -134 8 -158 20 -17 10 -44 18
-58 20 -49 5 -70 62 -39 102 17 21 -1 109 -28 139 -24 25 -24 27 -8 45 9 10
14 24 11 32 -3 8 5 27 19 43 13 16 24 38 24 49 1 38 12 48 119 99 51 25 61 26
139 20 82 -7 83 -7 117 -48 19 -23 53 -63 75 -89 22 -26 45 -58 51 -70 6 -12
21 -33 34 -47 25 -28 55 -114 55 -157 0 -15 7 -59 15 -98 9 -42 19 -171 25
-320 11 -300 20 -415 31 -415 13 0 32 80 31 130 0 25 11 83 24 129 13 46 24
94 24 107 0 14 11 56 24 94 14 39 32 117 41 174 15 94 15 107 1 141 -17 40
-22 170 -7 179 13 8 20 -28 14 -76 l-5 -43 21 25 c22 27 27 60 11 76 -6 6 -6
22 0 44 11 38 5 187 -9 235 -5 17 -12 57 -15 90 -6 57 -30 135 -62 198 -8 16
-14 43 -14 61 0 22 -8 40 -26 57 -14 13 -33 38 -41 54 -17 34 -35 52 -75 78
-16 10 -28 23 -28 30 0 16 -27 52 -59 81 -14 11 -45 40 -69 63 -25 25 -65 50
-94 60 -37 13 -54 26 -65 48 -13 28 -41 48 -128 93 -16 9 -39 24 -50 35 -47
44 -124 66 -375 106 -36 6 -85 15 -110 20 -75 15 -174 21 -195 11z m755 -229
c0 -5 8 -12 18 -15 29 -10 94 -74 87 -86 -8 -12 -54 13 -68 37 -4 7 -16 13
-25 13 -10 0 -23 5 -30 12 -17 17 -15 48 3 48 8 0 15 -4 15 -9z m-165 -3002
c10 -15 -1 -23 -20 -15 -9 3 -13 10 -10 16 8 13 22 13 30 -1z"/>
</g>
</svg>
